<svg id="Слой_1" data-name="Слой 1" xmlns="http://www.w3.org/2000/svg" width="467.72" height="194.91" viewBox="0 0 467.72 194.91">
  <defs>
    <style>
      .cls-1, .cls-4 {
        opacity: 0.9;
      }

      .cls-2 {
        isolation: isolate;
      }

      .cls-3 {
        fill: #001a4d;
      }

      .cls-4 {
        fill: none;
        stroke: #001a4d;
        stroke-miterlimit: 10;
        stroke-width: 3px;
      }

      .cls-5, .cls-6 {
        fill: #feba53;
      }

      .cls-6 {
        opacity: 0.14;
      }

      .cls-7 {
        fill: #00205f;
      }
    </style>
  </defs>
  <g class="cls-1">
    <g>
      <g class="cls-2">
        <path class="cls-3" d="M257.62,474.19a.81.81,0,0,1-.39-.11,1.24,1.24,0,0,1-.29-.27,1.93,1.93,0,0,1-.19-.34,1.35,1.35,0,0,1-.08-.3c-.09-.59-.2-1.17-.31-1.73s-.24-1.1-.37-1.63-.27-1-.43-1.49-.31-.93-.48-1.35l-.77-1.74v38.91a1.11,1.11,0,0,1-.23.7,1.52,1.52,0,0,1-.52.43,2.21,2.21,0,0,1-.59.21,1.47,1.47,0,0,1-.41,0,.46.46,0,0,1-.2,0,.41.41,0,0,1-.14-.12.54.54,0,0,1-.08-.19,1.09,1.09,0,0,1,0-.26V468c-.08.72-.18,1.43-.29,2.12s-.21,1.38-.33,2-.24,1.3-.36,1.93-.26,1.23-.4,1.82c-.36,1.6-.8,3.13-1.26,4.51s-.92,2.63-1.36,3.67a26.55,26.55,0,0,1-1.19,2.46c-.33.58-.58.9-.7.89a.2.2,0,0,1-.1,0,.31.31,0,0,1-.1-.1.48.48,0,0,1-.07-.16.9.9,0,0,1,0-.25.49.49,0,0,1,0-.12,1,1,0,0,1,0-.16l0-.16.06-.16c.64-1.94,1.25-4,1.82-6.16s1.11-4.39,1.6-6.68.94-4.65,1.32-7,.71-4.77,1-7.15l-4.44.11-.35-2.06,5.14-.14V442.53l2.47.34a2,2,0,0,1,.48.13.91.91,0,0,1,.34.22.83.83,0,0,1,.2.3,1,1,0,0,1,.07.38,1.81,1.81,0,0,1,0,.4,1.71,1.71,0,0,1-.13.38,1.85,1.85,0,0,1-.21.33,1.48,1.48,0,0,1-.3.26,2.48,2.48,0,0,0-.3.25,1.46,1.46,0,0,0-.21.28,1.17,1.17,0,0,0-.12.31,1.27,1.27,0,0,0-.05.34v10.64l1.23,0,2.27-3.17,2,2.72a.93.93,0,0,1,.12.18,1.55,1.55,0,0,1,.08.23,2.44,2.44,0,0,1,.06.26,2.35,2.35,0,0,1,0,.26,2.2,2.2,0,0,1-.06.5,2,2,0,0,1-.17.49,1.41,1.41,0,0,1-.29.38.63.63,0,0,1-.39.15l-4.87.12v4.11a16.52,16.52,0,0,1,1.43,2.05,27.05,27.05,0,0,1,1.35,2.49,20.36,20.36,0,0,1,1,2.49,7.43,7.43,0,0,1,.39,2.05,5.5,5.5,0,0,1-.05.74,2.69,2.69,0,0,1-.16.58.89.89,0,0,1-.27.37A.6.6,0,0,1,257.62,474.19Z" transform="translate(-245.92 -386.59)"/>
        <path class="cls-3" d="M259.27,452a.34.34,0,0,1-.09-.08l-.06-.11,0-.13a.76.76,0,0,1,0-.15.69.69,0,0,1,0-.22.34.34,0,0,1,.06-.15.31.31,0,0,1,.11-.09.28.28,0,0,1,.13,0,1,1,0,0,1,.52.2,4.37,4.37,0,0,1,.66.51c.23.21.47.44.69.68s.43.48.61.7l1.43-4.22.89-3.87.18-1.86,2.34,1a2.26,2.26,0,0,1,.28.2,1.34,1.34,0,0,1,.21.2.71.71,0,0,1,.13.22.69.69,0,0,1,0,.25,1,1,0,0,1,0,.23.77.77,0,0,1-.1.25.63.63,0,0,1-.19.21.59.59,0,0,1-.29.09l-.61.31-1.78,4.38-1.8,3.49c.09.11.25.32.45.6a10.86,10.86,0,0,1,.66,1,7.35,7.35,0,0,1,.58,1.27,4.15,4.15,0,0,1,.25,1.38,3.33,3.33,0,0,1-.08.87.84.84,0,0,1-.24.46.89.89,0,0,1-.42.17,5,5,0,0,1-.6,0l-.47-.75c-.06-.28-.19-.76-.36-1.35s-.41-1.26-.69-2a14.14,14.14,0,0,0-1-2.06A6.66,6.66,0,0,0,259.27,452Z" transform="translate(-245.92 -386.59)"/>
        <path class="cls-3" d="M262.17,467.57c.28-.51.55-1.05.82-1.62s.52-1.15.78-1.77.52-1.26.77-1.92.5-1.35.74-2.06c.42-1.26.74-2.22,1-3s.43-1.36.57-1.88.24-1,.34-1.47.19-1.05.31-1.75l2.22,1.3a1.75,1.75,0,0,1,.27.16,1.21,1.21,0,0,1,.2.19,1.06,1.06,0,0,1,.11.21,1,1,0,0,1,0,.25,1,1,0,0,1-.06.37.7.7,0,0,1-.2.26,1.76,1.76,0,0,1-.37.2l-.56.24c-.21.58-.44,1.16-.67,1.74s-.48,1.16-.74,1.74-.51,1.17-.78,1.75-.54,1.15-.82,1.73l-2.62,5,.65-.14,4.36-1.5c-.07-.33-.15-.64-.23-.93s-.18-.56-.27-.81-.18-.49-.27-.7-.18-.4-.26-.57l-.07-.11,0-.09,0-.09v-.06a.55.55,0,0,1,0-.17.58.58,0,0,1,.08-.18,1,1,0,0,1,.1-.15.24.24,0,0,1,.11-.06c.21,0,.54.35.9.93a17.63,17.63,0,0,1,1.15,2.24,23.76,23.76,0,0,1,1,2.7,8.81,8.81,0,0,1,.42,2.31,3,3,0,0,1-.06.49c-.05.22-.11.46-.19.7a2.35,2.35,0,0,1-.33.61.6.6,0,0,1-.46.27.7.7,0,0,1-.46-.18,1.38,1.38,0,0,1-.31-.4,2.62,2.62,0,0,1-.17-.46,1.36,1.36,0,0,1-.06-.33l-.29-3.38-3.15,1.82-3.2,1.38a.39.39,0,0,0-.1.08.68.68,0,0,0-.12.28,1.11,1.11,0,0,0,0,.19l.05.48a1,1,0,0,1,0,.32.92.92,0,0,1-.09.25.81.81,0,0,1-.16.16.47.47,0,0,1-.22.09.63.63,0,0,1-.3-.07.87.87,0,0,1-.27-.24,1.93,1.93,0,0,1-.23-.41,4.4,4.4,0,0,1-.17-.57l-.87-3.05Z" transform="translate(-245.92 -386.59)"/>
        <path class="cls-3" d="M279.63,470.27a.64.64,0,0,1,.27.06,3.57,3.57,0,0,1,.53.22,6.66,6.66,0,0,1,.73.45,8.68,8.68,0,0,1,.88.73c.32.29.59.54.81.78a4,4,0,0,1,.54.75,3.22,3.22,0,0,1,.29.86,6.35,6.35,0,0,1,.09,1.14,1.61,1.61,0,0,1-.07.51,1.06,1.06,0,0,1-.2.38.76.76,0,0,1-.3.23.91.91,0,0,1-.37.08.69.69,0,0,1-.36-.1,1,1,0,0,1-.27-.22,1.62,1.62,0,0,1-.2-.28,2.41,2.41,0,0,1-.11-.25,7.41,7.41,0,0,0-.49-1.51,9.43,9.43,0,0,0-.67-1.31,10.7,10.7,0,0,0-.69-1,4.46,4.46,0,0,0-.51-.56l-.13-.07-.09-.12a.58.58,0,0,1-.05-.14.44.44,0,0,1,0-.16.88.88,0,0,1,0-.16.6.6,0,0,1,.08-.16.53.53,0,0,1,.13-.13A.27.27,0,0,1,279.63,470.27Z" transform="translate(-245.92 -386.59)"/>
        <path class="cls-3" d="M278.17,466.35c.34-.54.68-1.12,1-1.72s.67-1.23,1-1.88.65-1.34,1-2.05.61-1.45.91-2.21c.46-1.1.82-2,1.12-2.82s.53-1.47.72-2.09.35-1.18.49-1.76.26-1.16.4-1.81l2.34,1.54a2,2,0,0,1,.27.22,1.51,1.51,0,0,1,.21.23,1.05,1.05,0,0,1,.13.26.75.75,0,0,1,0,.26.53.53,0,0,1-.1.34.62.62,0,0,1-.27.23,3.41,3.41,0,0,1-.44.17l-.6.16c-.24.61-.49,1.22-.76,1.83s-.56,1.22-.86,1.83-.61,1.22-.93,1.83l-1,1.82-3.3,5.4,1.38-.3,5.1-1.49c-.11-.35-.23-.68-.35-1a9,9,0,0,0-.38-.87,7.37,7.37,0,0,0-.38-.7,4.15,4.15,0,0,0-.38-.52l-.07-.11s0-.07-.05-.1a.43.43,0,0,1,0-.11.41.41,0,0,1,0-.11.42.42,0,0,1,0-.14.7.7,0,0,1,.06-.19.76.76,0,0,1,.13-.17.29.29,0,0,1,.19-.07c.19,0,.57.37,1,1a20.23,20.23,0,0,1,1.47,2.32,23.94,23.94,0,0,1,1.33,2.76,6.73,6.73,0,0,1,.58,2.27l-.2,1.56a1.11,1.11,0,0,1-.13.29,1,1,0,0,1-.16.23.66.66,0,0,1-.2.14.38.38,0,0,1-.21.05,1,1,0,0,1-.58-.14,1,1,0,0,1-.36-.36,1.38,1.38,0,0,1-.17-.42,1.72,1.72,0,0,1-.05-.35l-.65-3.61-4,1.88-4,1.45a.27.27,0,0,0-.14.08.36.36,0,0,0-.07.19,1.42,1.42,0,0,0,0,.33v.52a1,1,0,0,1-.05.31.54.54,0,0,1-.13.22.57.57,0,0,1-.21.13,1,1,0,0,1-.3,0,.43.43,0,0,1-.25-.08,1,1,0,0,1-.24-.23,3.44,3.44,0,0,1-.21-.39,4.53,4.53,0,0,1-.17-.55l-.82-3.27Z" transform="translate(-245.92 -386.59)"/>
        <path class="cls-3" d="M299.62,463a.56.56,0,0,1-.3-.07.5.5,0,0,1-.19-.25,2,2,0,0,1-.09-.45,6.39,6.39,0,0,1,0-.68V441.21l2.3,2.14,10.39-.49,1.2-2.65,2.18,2a1.07,1.07,0,0,1,.2.23,1.55,1.55,0,0,1,.14.29,2.82,2.82,0,0,1,.07.31c0,.11,0,.22,0,.34a1.94,1.94,0,0,1-.07.33,1.34,1.34,0,0,1-.12.3,1.32,1.32,0,0,1-.18.26.76.76,0,0,1-.23.17l-.22.19a1,1,0,0,0-.17.21.94.94,0,0,0-.12.22.85.85,0,0,0,0,.22v16a1.91,1.91,0,0,1-.06.58.75.75,0,0,1-.27.39,2.36,2.36,0,0,1-.61.34c-.27.12-.62.26-1.07.43a.45.45,0,0,1-.28-.09.84.84,0,0,1-.21-.31,2.68,2.68,0,0,1-.12-.52,5.78,5.78,0,0,1,0-.77v-2.21l-10.07.22v2.19a1.26,1.26,0,0,1,0,.27,1.59,1.59,0,0,1-.12.27,1.46,1.46,0,0,1-.2.25,2.18,2.18,0,0,1-.27.24l-.45.16-.37.12-.31.08Zm2-17.48v11.7L311.7,457V445.06l-10.07.45" transform="translate(-245.92 -386.59)"/>
        <path class="cls-3" d="M325.86,462.84a.71.71,0,0,1,.05-.26.67.67,0,0,1,.14-.19.66.66,0,0,1,.22-.12.76.76,0,0,1,.27,0,6.29,6.29,0,0,1,1.73.36,13.44,13.44,0,0,1,2.39,1,8.47,8.47,0,0,1,2.12,1.61,3.07,3.07,0,0,1,.91,2,3.75,3.75,0,0,1,0,.64.87.87,0,0,1-.17.39,1.26,1.26,0,0,1-.37.29c-.16.09-.37.18-.63.3l-.8-.61a19.94,19.94,0,0,0-1.94-2.47,11.64,11.64,0,0,0-1.6-1.46,6.1,6.1,0,0,0-1.19-.71,2.81,2.81,0,0,0-.69-.22.23.23,0,0,1-.18-.05.33.33,0,0,1-.13-.13.6.6,0,0,1-.06-.19A.83.83,0,0,1,325.86,462.84Z" transform="translate(-245.92 -386.59)"/>
        <path class="cls-3" d="M322.4,462.3a.55.55,0,0,1-.32-.08.5.5,0,0,1-.19-.25,1.66,1.66,0,0,1-.1-.46c0-.2,0-.43,0-.71V440.05l2.47,2.21,11.08-.53,1.34-2.75L339,441.1a1.26,1.26,0,0,1,.22.24,1.11,1.11,0,0,1,.14.29,1.32,1.32,0,0,1,.08.33,2,2,0,0,1,0,.34,2,2,0,0,1-.08.35,1.3,1.3,0,0,1-.14.32,1,1,0,0,1-.19.26.69.69,0,0,1-.24.18,1.59,1.59,0,0,0-.24.2,1.68,1.68,0,0,0-.18.21,1.27,1.27,0,0,0-.12.23.62.62,0,0,0,0,.23v16.58a2.09,2.09,0,0,1-.07.61.8.8,0,0,1-.29.4,2.81,2.81,0,0,1-.66.35c-.29.13-.67.27-1.15.45a.5.5,0,0,1-.31-.1.7.7,0,0,1-.24-.31,1.9,1.9,0,0,1-.15-.55,4.46,4.46,0,0,1-.06-.79v-2.3l-10.74.25c0,.58,0,1,0,1.39a6.26,6.26,0,0,1-.08.82,1.13,1.13,0,0,1-.2.47,1.94,1.94,0,0,1-.39.34l-.48.16-.4.13-.34.09Zm2.17-17.8v12.11l10.74-.27V444l-10.74.48" transform="translate(-245.92 -386.59)"/>
        <path class="cls-3" d="M344.75,483.68a.3.3,0,0,1,.16.05.28.28,0,0,1,.13.11.51.51,0,0,1,.09.18.71.71,0,0,1,0,.21.54.54,0,0,1-.07.26,1.17,1.17,0,0,1-.2.29,2.86,2.86,0,0,1-.36.3,3,3,0,0,1-.51.29,3.11,3.11,0,0,0-.52.34,2.32,2.32,0,0,0-.4.43,2,2,0,0,0-.26.51,1.75,1.75,0,0,0-.12.55c0,.22-.06.4-.09.56a3.49,3.49,0,0,1-.12.38.61.61,0,0,1-.14.23.24.24,0,0,1-.18.07l-3.67-1.93L338,487a1.25,1.25,0,0,0-.28.15,1.2,1.2,0,0,0-.23.22.94.94,0,0,0-.14.26.69.69,0,0,0-.05.28v19.86a1.3,1.3,0,0,1,0,.34,1.34,1.34,0,0,1-.12.3,1,1,0,0,1-.2.25.91.91,0,0,1-.24.16l-.52.13-.44.1-.36.06a1.46,1.46,0,0,1-.29,0,.68.68,0,0,1-.33-.1.54.54,0,0,1-.2-.26,1.63,1.63,0,0,1-.11-.46,6.52,6.52,0,0,1,0-.68V504l-10.55-.47v3.75a.87.87,0,0,1-.05.28.9.9,0,0,1-.11.27,1.37,1.37,0,0,1-.2.22,1,1,0,0,1-.26.18l-.49.13-.41.1-.34.06a1.47,1.47,0,0,1-.28,0,.68.68,0,0,1-.33-.1.64.64,0,0,1-.2-.27,1.66,1.66,0,0,1-.1-.47,7,7,0,0,1,0-.7V482.22l2.46,2.29,10.84.17.35-.53a28.43,28.43,0,0,1-2.29-1.89c-.85-.78-1.78-1.69-2.72-2.73a39,39,0,0,1-2.81-3.5,36.7,36.7,0,0,1-2.58-4.22l-10.41,0L311.49,475c-.59.68-1.2,1.34-1.83,2s-1.31,1.29-2,1.9-1.41,1.21-2.15,1.79-1.51,1.13-2.31,1.67l-2,1.2.73.67,11,.17,1.41-2,2.52,2.26a1,1,0,0,1,.15.14,1.62,1.62,0,0,1,.1.18.83.83,0,0,1,.06.21.82.82,0,0,1,0,.22,1.07,1.07,0,0,1-.07.39,1.11,1.11,0,0,1-.18.34,1.16,1.16,0,0,1-.26.28,1.34,1.34,0,0,1-.31.17,1,1,0,0,0-.3.14.88.88,0,0,0-.22.21.73.73,0,0,0-.15.25.92.92,0,0,0-.05.28v19.22a.92.92,0,0,1,0,.33,1.34,1.34,0,0,1-.12.3,1,1,0,0,1-.18.23.65.65,0,0,1-.23.15l-.47.14-.4.11-.34.07a1.26,1.26,0,0,1-.27,0,.57.57,0,0,1-.31-.09.54.54,0,0,1-.2-.26,1.48,1.48,0,0,1-.11-.45,6.32,6.32,0,0,1,0-.67V503l-10.11-.45v3.35a1.24,1.24,0,0,1,0,.27,1.19,1.19,0,0,1-.11.26,1,1,0,0,1-.17.25,3.2,3.2,0,0,1-.27.22l-.47.1-.39.08-.31,0a1.17,1.17,0,0,1-.26,0,.49.49,0,0,1-.3-.09.47.47,0,0,1-.17-.25,2.27,2.27,0,0,1-.08-.46c0-.19,0-.42,0-.7v-21.6c-.6.39-1.24.77-1.88,1.12s-1.26.68-1.82,1-1,.51-1.4.67a3.73,3.73,0,0,1-.64.25.35.35,0,0,1-.18-.05.33.33,0,0,1-.13-.11.6.6,0,0,1-.08-.16,1.12,1.12,0,0,1,0-.2.67.67,0,0,1,.06-.31.91.91,0,0,1,.07-.14.75.75,0,0,1,.07-.12,45.57,45.57,0,0,0,4.91-3,54.68,54.68,0,0,0,4.59-3.59,47.48,47.48,0,0,0,3.91-3.82,29.7,29.7,0,0,0,2.9-3.68l-14.92,0-.41-2.15,16.73-.11c.44-.73.8-1.32,1.11-1.85s.58-1,.83-1.47.48-.95.72-1.49.49-1.15.78-1.89l2.86,1.22a1.51,1.51,0,0,1,.36.18,1.2,1.2,0,0,1,.26.24.85.85,0,0,1,.15.28.87.87,0,0,1,.06.32,1,1,0,0,1,0,.28,1.22,1.22,0,0,1-.14.34,1,1,0,0,1-.26.31.92.92,0,0,1-.38.2,1.46,1.46,0,0,0-.31,0,1.56,1.56,0,0,0-.26.11.7.7,0,0,0-.19.15.61.61,0,0,0-.13.16l-1.92,2.85,20-.13,3.75-4.11,3.71,3.67a.58.58,0,0,1,.2.21,1.06,1.06,0,0,1,.15.28,1.19,1.19,0,0,1,.1.32,2,2,0,0,1,0,.34,1.89,1.89,0,0,1-.09.6,1.38,1.38,0,0,1-.25.5,1.2,1.2,0,0,1-.41.33,1.25,1.25,0,0,1-.56.12l-16.2.05c.32.46.66.9,1,1.33s.7.86,1.07,1.28.75.82,1.14,1.22.8.79,1.22,1.17a29.33,29.33,0,0,0,4.17,2.91,34.48,34.48,0,0,0,4.13,2.06,36.74,36.74,0,0,0,3.58,1.29A20.24,20.24,0,0,0,344.75,483.68Zm-41.91,2.68v14.05l10.11.42V486.55l-10.11-.19m31.6,15.35V487l-10.55-.2v14.51l10.55.43" transform="translate(-245.92 -386.59)"/>
        <path class="cls-3" d="M377.4,436.24q.44,8.77.66,16.44t.31,14.21q.08,6.54,0,11.94c0,3.59-.08,6.81-.14,9.63,0,1.85-.09,3.94-.22,6.07a60.57,60.57,0,0,1-.7,6.31,21.59,21.59,0,0,1-1.54,5.34,6.25,6.25,0,0,1-2.75,3.16,3.07,3.07,0,0,1-.5.2,3.36,3.36,0,0,1-.5.13l-.5.06h-.5a4.2,4.2,0,0,1-.62-.07,5.63,5.63,0,0,1-.59-.14,4.59,4.59,0,0,1-.56-.18l-.51-.21q1-5.43,2-11.16t1.84-11.8q.88-6.06,1.64-12.43t1.4-13q.3-3.16.55-6.28c.18-2.08.33-4.14.48-6.18s.27-4.06.39-6.07S377.3,438.2,377.4,436.24Z" transform="translate(-245.92 -386.59)"/>
      </g>
      <path class="cls-3" d="M290.64,478.06a1.87,1.87,0,0,1-.09.61,1.21,1.21,0,0,1-.24.45,1,1,0,0,1-.35.27,1,1,0,0,1-.43.09l-13.41-.12.73,3.29c.17.72.35,1.43.54,2.11s.38,1.35.59,2,.41,1.25.63,1.82.45,1.12.68,1.62c.28-.47.55-.94.82-1.42s.51-1,.75-1.45.46-1,.68-1.44.41-.94.6-1.39l.69-2,2.34,2.16.26.26a2.11,2.11,0,0,1,.18.27,1.59,1.59,0,0,1,.12.27,1.24,1.24,0,0,1,0,.27.79.79,0,0,1-.08.41.41.41,0,0,1-.27.2,1.55,1.55,0,0,1-.49.07h-.75c-.26.52-.54,1.06-.84,1.59s-.62,1.08-.94,1.61-.67,1.08-1,1.61-.7,1.06-1.05,1.57a37.32,37.32,0,0,0,2.42,4.08,18.16,18.16,0,0,0,1.91,2.36,6.86,6.86,0,0,0,1.31,1.08,1.45,1.45,0,0,0,.6.26c.05,0,.11,0,.18-.11a2.18,2.18,0,0,0,.22-.35,4.46,4.46,0,0,0,.24-.59c.09-.23.18-.51.27-.82l1.4-5.15c0-.09.06-.16.09-.23a.56.56,0,0,1,.1-.15.42.42,0,0,1,.12-.08.4.4,0,0,1,.15,0l.12,0a.6.6,0,0,1,.23.13.82.82,0,0,1,.21.28,1.23,1.23,0,0,1,.1.52l-.91,6.09a1.71,1.71,0,0,0,0,.31c0,.1,0,.2,0,.29s0,.2,0,.3v.31c0,.19,0,.38,0,.57a4.52,4.52,0,0,0,.06.53c0,.16.06.32.09.46a2.61,2.61,0,0,0,.14.37c.06.13.11.26.16.38s.08.25.11.38a2.33,2.33,0,0,1,.06.35,2,2,0,0,1,0,.34,2.36,2.36,0,0,1,0,.32,1.72,1.72,0,0,1-.14.5,1,1,0,0,1-.39.44,1.38,1.38,0,0,1-.76.17,2.61,2.61,0,0,1-.78-.19,4,4,0,0,1-.83-.45,8.47,8.47,0,0,1-.92-.69c-.33-.26-.67-.57-1-.9a26,26,0,0,1-2-2.17,24.33,24.33,0,0,1-1.56-2.11c-.47-.71-.89-1.43-1.31-2.19s-.84-1.54-1.28-2.38a35.84,35.84,0,0,1-2.54,2.81,29,29,0,0,1-2.49,2.23,22.1,22.1,0,0,1-2.38,1.7A18.6,18.6,0,0,1,269,503l-1.44.61c-.46.18-.93.35-1.38.5s-.89.28-1.32.38a9.87,9.87,0,0,1-1.26.23.41.41,0,0,1-.18-.05.83.83,0,0,1-.16-.12.56.56,0,0,1-.12-.2.76.76,0,0,1-.05-.27.32.32,0,0,1,0-.14.39.39,0,0,1,.06-.11.31.31,0,0,1,.11-.09l.13-.06a17,17,0,0,0,2.68-1,21.6,21.6,0,0,0,2.9-1.59,29.36,29.36,0,0,0,3-2.21,33,33,0,0,0,3-2.86l2.61-3.33c-.43-1.1-.84-2.25-1.22-3.42s-.72-2.36-1-3.53-.58-2.3-.81-3.38-.42-2.09-.56-3l-9.1-.08-.19,4.17a16.31,16.31,0,0,1,1.67,1.41,24.7,24.7,0,0,1,1.82,2,18.07,18.07,0,0,1,1.61,2.19,9.34,9.34,0,0,1,1,2.16l.14,1.87a1.69,1.69,0,0,1,0,.28,1.19,1.19,0,0,1-.13.42.81.81,0,0,1-.35.36,1.24,1.24,0,0,1-.69.15.71.71,0,0,1-.31-.1,1.17,1.17,0,0,1-.29-.22,1.81,1.81,0,0,1-.22-.32,1.48,1.48,0,0,1-.13-.35c-.18-.58-.38-1.14-.59-1.68s-.42-1.07-.64-1.57-.45-1-.68-1.43-.47-.86-.72-1.25l-1.59-2.23c-.06.79-.12,1.56-.19,2.33s-.16,1.52-.29,2.28-.27,1.53-.47,2.31a20.9,20.9,0,0,1-.77,2.41,19.15,19.15,0,0,1-1.89,3.82,17.2,17.2,0,0,1-2,2.59,12.82,12.82,0,0,1-1.65,1.49,2.56,2.56,0,0,1-.76.46.29.29,0,0,1-.2-.09.6.6,0,0,1-.14-.21.79.79,0,0,1-.08-.23.69.69,0,0,1,0-.16.39.39,0,0,1,0-.15.57.57,0,0,1,0-.14.54.54,0,0,1,.07-.13l.09-.11a19.09,19.09,0,0,0,3.24-4.48,22.45,22.45,0,0,0,1.9-5.15,37.78,37.78,0,0,0,.88-5.91c.16-2.11.22-4.36.22-6.76l-4.19,0-.36-2.1,15.63.08-.77-6.25c-.14-1.42-.27-3-.39-4.84s-.22-3.78-.31-5.95-.17-4.53-.23-7.08-.1-5.27-.12-8.17l.05-3.61,2.93.61a1.46,1.46,0,0,1,.46.14,1,1,0,0,1,.31.26,1.22,1.22,0,0,1,.18.36,1.61,1.61,0,0,1,.06.44,1.88,1.88,0,0,1-.05.43,1.25,1.25,0,0,1-.16.35,1,1,0,0,1-.24.25,1.2,1.2,0,0,1-.33.13.79.79,0,0,0-.32.06.78.78,0,0,0-.24.13.47.47,0,0,0-.15.17.27.27,0,0,0-.06.16q0,.92,0,1.8c0,.59,0,1.18,0,1.75s0,1.14,0,1.7v1.64c0,3.68.05,6.8.14,9.47s.2,4.92.35,6.86.32,3.59.51,5.08.39,2.81.6,4.12l8.93.05,2.95-3.18,2.57,2.86a1,1,0,0,1,.17.19,1.11,1.11,0,0,1,.12.27,1.16,1.16,0,0,1,.08.32A2.19,2.19,0,0,1,290.64,478.06Z" transform="translate(-245.92 -386.59)"/>
      <path class="cls-3" d="M275.59,450.36a.78.78,0,0,1,0-.14.58.58,0,0,1,.06-.17.35.35,0,0,1,.11-.13.26.26,0,0,1,.15-.07.62.62,0,0,1,.23.06,2,2,0,0,1,.47.3,5.2,5.2,0,0,1,.71.71,11.57,11.57,0,0,1,1,1.29c.15-.3.3-.62.45-.95s.3-.67.44-1,.29-.72.43-1.1.27-.78.39-1.19l1-3.85.35-1.84,2.32,1.3a1.17,1.17,0,0,1,.29.17,1,1,0,0,1,.2.2,1.19,1.19,0,0,1,.12.22.93.93,0,0,1,0,.22.82.82,0,0,1-.09.4.71.71,0,0,1-.24.28,1.9,1.9,0,0,1-.38.22l-.53.22-2,4.17L279,453.17c.33.53.58,1,.77,1.34a5.44,5.44,0,0,1,.39,1,5.14,5.14,0,0,1,.14,1c0,.36,0,.76,0,1.25a2,2,0,0,1-.11.35,2.14,2.14,0,0,1-.17.3,1.07,1.07,0,0,1-.23.2.57.57,0,0,1-.28.08.89.89,0,0,1-.3-.05,1.35,1.35,0,0,1-.33-.18,1.38,1.38,0,0,1-.28-.34,1.32,1.32,0,0,1-.16-.53c-.05-.29-.14-.76-.27-1.32s-.31-1.2-.53-1.87a13.58,13.58,0,0,0-.81-2,6.6,6.6,0,0,0-1.11-1.59.36.36,0,0,1-.15-.19.74.74,0,0,1,0-.14A.76.76,0,0,1,275.59,450.36Z" transform="translate(-245.92 -386.59)"/>
    </g>
  </g>
  <path class="cls-4" d="M419.6,559.12,336,579.62c-9,2.21-17.5-5.55-17.5-16V417.27c0-8.18,5.34-15.1,12.49-16.2l83.31-12.83c8.65-1.33,16.36,6.27,16.38,16.16l.3,138.7C431,550.81,426.26,557.49,419.6,559.12Z" transform="translate(-245.92 -386.59)"/>
  <ellipse class="cls-5" cx="138.26" cy="163.16" rx="3.68" ry="6.25"/>
  <path class="cls-6" d="M417.52,529l-81.75,20.59c-9.45,2.38-18.31-6.44-18.35-18.26q-.18-55.47-.37-110.92c0-9.4,5.63-17.37,13.23-18.64l83.59-13.87c9.27-1.54,17.48,7.41,17.32,18.88q-.74,52.11-1.48,104.21C429.59,519.77,424.52,527.26,417.52,529Z" transform="translate(-245.92 -386.59)"/>
  <g>
    <path class="cls-7" d="M396.58,436.33v68.49l-4-.07v-60.9l-14.09.37-.15-.08-.15-.07-.14-.06-.15-.06v-7Z" transform="translate(-245.92 -386.59)"/>
    <path class="cls-7" d="M545,451.81a8.13,8.13,0,0,1,5.34,1.94,15.91,15.91,0,0,1,4.15,5.67,35.92,35.92,0,0,1,2.7,8.86A70,70,0,0,1,557,492.8a32.25,32.25,0,0,1-3.14,9,15,15,0,0,1-4.37,5.16,8.17,8.17,0,0,1-4.88,1.6,8.09,8.09,0,0,1-5.11-2,16.43,16.43,0,0,1-4.08-5.61,35.64,35.64,0,0,1-2.71-8.76,62.67,62.67,0,0,1-1-11.52,66.08,66.08,0,0,1,1-12.07,36.05,36.05,0,0,1,2.83-9,16.42,16.42,0,0,1,4.23-5.69A8.46,8.46,0,0,1,545,451.81Zm-.23,49.35a4.55,4.55,0,0,0,3.28-1.54,13,13,0,0,0,2.62-4.37,32.27,32.27,0,0,0,1.74-6.69,54.08,54.08,0,0,0,.63-8.49,56.69,56.69,0,0,0-.45-7.17,38.2,38.2,0,0,0-1.44-6.76,15,15,0,0,0-2.53-5,4.76,4.76,0,0,0-3.74-1.92,5.06,5.06,0,0,0-3.75,1.89,14.23,14.23,0,0,0-2.58,4.84,36.06,36.06,0,0,0-1.48,6.74,57.58,57.58,0,0,0-.48,7.61,54,54,0,0,0,.6,8.24,32.24,32.24,0,0,0,1.68,6.59,13.49,13.49,0,0,0,2.59,4.4,4.7,4.7,0,0,0,3.31,1.63" transform="translate(-245.92 -386.59)"/>
    <g class="cls-2">
      <path class="cls-7" d="M449.16,453.56a5.59,5.59,0,0,1,4,1.8,15.23,15.23,0,0,1,3.23,5.25,38.35,38.35,0,0,1,2.16,8.21,68.76,68.76,0,0,1,.78,10.64,73.14,73.14,0,0,1-.92,12.09,35.86,35.86,0,0,1-2.45,8.58,14.35,14.35,0,0,1-3.49,5.09,6,6,0,0,1-4.08,1.63,5.11,5.11,0,0,1-2.28-.58,7,7,0,0,1-2-1.59,12,12,0,0,1-1.71-2.54,18.47,18.47,0,0,1-1.29-3.38l-.1,27.55-4.24-.13V471.44c0-1.62,0-3.16,0-4.63s0-2.89,0-4.25,0-2.66-.06-3.93-.05-2.49-.08-3.69l3.85-.07.19,8.69a28.77,28.77,0,0,1,1.58-4.16,15.31,15.31,0,0,1,1.93-3.14,8.34,8.34,0,0,1,2.32-2A5.85,5.85,0,0,1,449.16,453.56Zm-1.49,46a4.12,4.12,0,0,0,3.08-1.4,11.2,11.2,0,0,0,2.29-4,31.42,31.42,0,0,0,1.43-6.23,61.54,61.54,0,0,0,.49-8,54.18,54.18,0,0,0-.47-7.3,31.09,31.09,0,0,0-1.38-6.05,11.84,11.84,0,0,0-2.24-4.11,4,4,0,0,0-3.05-1.49,3.51,3.51,0,0,0-2.15.85,8.06,8.06,0,0,0-1.91,2.33,17,17,0,0,0-1.51,3.62,28.26,28.26,0,0,0-1,4.72c0,.28-.07.58-.11.89l-.09.95c0,.32,0,.64-.07,1s0,.65,0,1v8.7c0,.34,0,.67,0,1s0,.65.05,1,0,.63.06.93.05.59.07.88a26.31,26.31,0,0,0,.91,4.39,15.86,15.86,0,0,0,1.46,3.43,7.68,7.68,0,0,0,1.9,2.24,3.69,3.69,0,0,0,2.21.82" transform="translate(-245.92 -386.59)"/>
      <path class="cls-7" d="M490.19,477.5c0,.48,0,.94,0,1.37s0,.84,0,1.21,0,.71-.05,1,0,.59-.05.83H472.5a44.25,44.25,0,0,0,.73,8.19,20.6,20.6,0,0,0,1.86,5.6,9,9,0,0,0,2.69,3.23A5.65,5.65,0,0,0,481,500a11.63,11.63,0,0,0,2.21-.18,8.72,8.72,0,0,0,1.83-.56,8.86,8.86,0,0,0,1.55-.84,15.13,15.13,0,0,0,1.35-1l.78,6.82a12.75,12.75,0,0,1-1.43,1.13,12.5,12.5,0,0,1-1.86,1,11.48,11.48,0,0,1-2.3.72,12.58,12.58,0,0,1-2.75.24,8,8,0,0,1-5.14-2,15.08,15.08,0,0,1-3.82-5.37,34.39,34.39,0,0,1-2.38-8.25,64.12,64.12,0,0,1-.82-10.65,71.81,71.81,0,0,1,.79-10.93,41.77,41.77,0,0,1,2.29-8.87,17.48,17.48,0,0,1,3.64-6,7,7,0,0,1,4.87-2.26,6.43,6.43,0,0,1,5.06,2.4,17.17,17.17,0,0,1,3.18,6.17,44.74,44.74,0,0,1,1.66,8A68,68,0,0,1,490.19,477.5Zm-4.42-2.37a43.56,43.56,0,0,0-.25-5,28,28,0,0,0-1-5,10.83,10.83,0,0,0-1.94-3.86,3.83,3.83,0,0,0-6.11,0,12.06,12.06,0,0,0-2.08,3.76,29.11,29.11,0,0,0-1.28,5,45.6,45.6,0,0,0-.6,5.14l13.23,0" transform="translate(-245.92 -386.59)"/>
      <path class="cls-7" d="M515.39,478.55A6.89,6.89,0,0,1,518,480a9.08,9.08,0,0,1,2.11,2.69,14.71,14.71,0,0,1,1.4,3.93,25.32,25.32,0,0,1,.5,5.19,21.61,21.61,0,0,1-1.44,8.37,11.37,11.37,0,0,1-3.54,4.71,11.75,11.75,0,0,1-4.49,2.06,17.45,17.45,0,0,1-4.28.42c-.72,0-1.45-.05-2.15-.11s-1.39-.13-2-.21l-1.75-.24-1.3-.22V454.47a14.32,14.32,0,0,1,1.61-.49c.61-.16,1.3-.3,2-.42s1.48-.23,2.25-.3,1.55-.12,2.31-.14a14.91,14.91,0,0,1,3.64.35,9.2,9.2,0,0,1,6.75,5.71,18.43,18.43,0,0,1,1.2,7.1,21.83,21.83,0,0,1-.44,4.49,14.68,14.68,0,0,1-1.18,3.52,9.91,9.91,0,0,1-1.74,2.52,6.68,6.68,0,0,1-2.1,1.51Zm-6.13,22.25a9.13,9.13,0,0,0,2.57-.32,6.73,6.73,0,0,0,4.55-4.14,12.52,12.52,0,0,0,.79-4.68,14.76,14.76,0,0,0-.66-4.72,6.71,6.71,0,0,0-1.8-2.87,6.34,6.34,0,0,0-2.63-1.41,11.77,11.77,0,0,0-3.19-.38h-3.41v18c.33.09.64.16.94.22s.59.11.89.14.6.07.92.09.66,0,1,0m-3.73-40.51v15.64h3.52a7.5,7.5,0,0,0,2.57-.43,6.08,6.08,0,0,0,2.28-1.41,6.83,6.83,0,0,0,1.62-2.59,11.63,11.63,0,0,0,.62-4,12.15,12.15,0,0,0-.43-3.44,5.91,5.91,0,0,0-1.29-2.42,5.17,5.17,0,0,0-2.18-1.42,8.78,8.78,0,0,0-3.08-.44c-.39,0-.74,0-1.07.05l-.91.11-.83.16-.82.16" transform="translate(-245.92 -386.59)"/>
      <path class="cls-7" d="M591.82,500.49l3,.15L594.5,526l-4.1-.11-.24-17.78-19.6-.33-.23,17.55-4-.11-.24-24.9,2.36-.08c.31-.88.59-1.77.86-2.68s.52-1.83.75-2.77.44-1.89.64-2.86.37-1.95.53-2.94c.28-1.71.51-3.46.72-5.24s.37-3.58.5-5.42.24-3.71.3-5.61.1-3.81.1-5.75V452.56l19-.33Zm-5.08-.17V460l-9.33.11v9.16c0,1.83,0,3.65-.09,5.44s-.16,3.56-.29,5.29-.28,3.42-.46,5.07-.39,3.24-.62,4.78c-.14.95-.3,1.87-.48,2.77s-.35,1.77-.54,2.63-.4,1.69-.61,2.5-.42,1.6-.64,2.37l13.06.16" transform="translate(-245.92 -386.59)"/>
      <path class="cls-7" d="M628.86,451.59v57.14l-5.38-.09V485.81h-.12a12,12,0,0,1-1.72,1.77,12.68,12.68,0,0,1-2,1.36,11,11,0,0,1-2.16.88,8.15,8.15,0,0,1-2.16.3,7.39,7.39,0,0,1-3.88-1.08,9.15,9.15,0,0,1-3-3.32,18.69,18.69,0,0,1-2-5.72,42.55,42.55,0,0,1-.72-8.33V452l5.32-.09v18.57a34.87,34.87,0,0,0,.3,4.89,14.21,14.21,0,0,0,1,3.8,6,6,0,0,0,1.87,2.47,4.93,4.93,0,0,0,2.94.88,5.58,5.58,0,0,0,1.75-.29,7.58,7.58,0,0,0,1.7-.82,10.27,10.27,0,0,0,1.58-1.26,12.73,12.73,0,0,0,1.37-1.62V451.68Z" transform="translate(-245.92 -386.59)"/>
      <path class="cls-7" d="M670.55,450.86v58.58l-5.46-.09V484.62c0-2.38,0-4.48,0-6.43s0-3.76.07-5.56.07-3.6.12-5.54.11-4,.17-6.37h-.19c-.5,1.88-1,3.58-1.4,5.17s-.86,3.06-1.27,4.49-.81,2.8-1.22,4.19-.83,2.78-1.28,4.26c-.75,2.25-1.51,4.64-2.3,7.11s-1.59,5-2.41,7.62l-2.48,7.82c-.83,2.6-1.66,5.19-2.49,7.72L644,509V451.32l5.26-.09v24.38c0,2.3,0,4.39,0,6.35s0,3.8,0,5.61-.06,3.58-.1,5.42-.09,3.75-.15,5.81l.19.12c.46-1.75.87-3.33,1.26-4.8s.77-2.86,1.15-4.22.76-2.73,1.18-4.16.87-2.95,1.38-4.63L663.86,451Z" transform="translate(-245.92 -386.59)"/>
      <path class="cls-7" d="M713.36,450.11,699,477.31a7.74,7.74,0,0,1,3.58,1.74,13.49,13.49,0,0,1,2.94,3.67,31.91,31.91,0,0,1,2.45,5.52,72.22,72.22,0,0,1,2.08,7.26c.23,1,.47,2.1.72,3.28s.54,2.43.83,3.72.61,2.59.94,3.88.7,2.57,1.07,3.78l-6.28-.1c-.22-.65-.46-1.43-.71-2.32s-.51-1.88-.77-2.94-.53-2.19-.8-3.37-.53-2.4-.78-3.64a46.35,46.35,0,0,0-1.86-6.27,18.5,18.5,0,0,0-2.31-4.39,8.64,8.64,0,0,0-2.93-2.58,7.84,7.84,0,0,0-3.69-.85h-1.14v26.11l-5.8-.1V450.58l5.8-.1v25.74h1.41l12.28-26Z" transform="translate(-245.92 -386.59)"/>
    </g>
    <path class="cls-7" d="M426.67,477.63c0,.47,0,.9,0,1.32s0,.8,0,1.15,0,.69-.05,1,0,.57,0,.8H410.41a45.6,45.6,0,0,0,.68,7.85,19.74,19.74,0,0,0,1.71,5.37,8.6,8.6,0,0,0,2.47,3.1,5.12,5.12,0,0,0,3,1,10.68,10.68,0,0,0,2-.18,7.68,7.68,0,0,0,1.68-.53,8.57,8.57,0,0,0,1.42-.81,10.85,10.85,0,0,0,1.24-1l.72,6.54a10.63,10.63,0,0,1-1.31,1.08,10.44,10.44,0,0,1-3.83,1.66,11.12,11.12,0,0,1-2.52.24,7.25,7.25,0,0,1-4.72-1.89,14.2,14.2,0,0,1-3.51-5.15,33.57,33.57,0,0,1-2.2-7.92,64.65,64.65,0,0,1-.75-10.21,71.45,71.45,0,0,1,.73-10.48,41.53,41.53,0,0,1,2.1-8.51,16.79,16.79,0,0,1,3.35-5.74,6.3,6.3,0,0,1,4.47-2.17,5.82,5.82,0,0,1,4.65,2.31,16.68,16.68,0,0,1,2.93,5.91,44.82,44.82,0,0,1,1.52,7.68A68.7,68.7,0,0,1,426.67,477.63Zm-4.06-2.27a42.12,42.12,0,0,0-.23-4.76,27.76,27.76,0,0,0-.89-4.8,10.46,10.46,0,0,0-1.78-3.7,3.43,3.43,0,0,0-5.62,0,11.7,11.7,0,0,0-1.91,3.6,29.06,29.06,0,0,0-1.18,4.76,43.82,43.82,0,0,0-.54,4.94l12.15,0" transform="translate(-245.92 -386.59)"/>
  </g>
</svg>
